<?xml version="1.0" encoding="UTF-8"?>
<svg width="1200pt" height="1200pt" version="1.1" viewBox="0 0 1200 1200" xmlns="http://www.w3.org/2000/svg">
 <path d="m1081.7 4.1602c-4.8047 2.2031-17.426 13.418-31.441 27.84-26.637 27.637-39.453 37.051-56.68 41.457-27.637 7.0078-50.469 2.0039-99.938-22.633-28.641-14.219-35.848-17.223-44.059-17.223-9.0117-0.19922-10.414 0.40234-14.418 6.4102-5.8086 8.4102-7.8125 24.031-6.0078 47.266 1.6016 25.434 6.8086 46.664 23.23 96.531 16.023 48.867 20.227 66.09 20.629 84.918 0.40234 18.824-3.8047 31.242-13.418 41.055-11.016 10.816-20.629 13.82-70.297 22.031-76.504 12.816-125.97 27.438-173.04 50.871-93.328 46.664-163.62 129.78-207.48 245.54-11.215 29.641-19.426 57.078-37.25 124.77-23.23 88.32-25.234 92.727-60.883 129.98-46.262 48.465-81.312 71.098-162.42 104.74-41.656 17.223-59.684 27.238-72.898 40.055-17.824 17.223-24.633 33.848-27.238 65.09-3.0039 37.852 18.227 68.695 63.285 91.926 9.4141 4.8047 22.832 10.414 30.043 12.215 18.625 4.8047 34.047 2.0039 34.047-6.207 0-1.6016-9.4141-12.816-20.828-25.035-29.039-30.641-36.051-46.863-28.438-66.891 6.207-15.82 33.645-37.453 66.289-52.07 15.621-7.0078 107.55-43.66 128.18-51.27 51.871-19.027 74.504-18.227 101.14 4.207l9.6133 8.0117 195.87-0.40234 196.07-0.60156-0.60156-15.02c-1.8008-39.055-12.016-46.863-65.09-49.867-15.02-0.80078-28.039-2.0039-28.438-2.6055-1.8008-1.6016 6.0078-20.027 19.027-45.664 23.23-45.461 55.074-88.723 73.301-99.336 8.2109-4.8047 10.414-5.207 25.434-4.4062 18.824 1 29.441 5.4062 39.055 16.422 8.0117 9.2109 10.215 16.824 13.418 47.465 2.0039 18.625 4.207 29.238 8.8125 40.855 22.832 59.082 90.926 124.37 128.98 123.37 13.02-0.19922 18.824-4.207 26.035-18.227 6.4102-12.617 7.2109-26.836 2.2031-36.648-1.8008-3.6055-12.215-15.621-22.832-26.836-47.465-49.27-62.086-88.32-62.086-166.03 0-78.91 15.422-136.79 49.27-184.45 4.8047-6.8086 21.027-25.637 36.051-42.059 47.867-52.273 57.277-72.5 57.277-122.77-0.19922-29.039-2.2031-44.461-10.613-75.703-14.219-53.875-9.4141-79.91 20.629-113.55 20.43-23.031 22.23-31.043 15.02-69.297-8.0117-41.859-11.016-60.281-15.223-96.934-5.4062-46.062-9.4141-56.277-23.633-62.285-8.8125-3.8047-18.023-3.4062-27.637 1z"/>
</svg>
